<svg xmlns="http://www.w3.org/2000/svg" viewBox="0 0 540 774.94"><defs><style>.cls-1{fill:#35ff9e;}.cls-2{fill:#1d2024;}</style></defs><title>Asset 1</title><g id="Layer_2" data-name="Layer 2"><g id="Layer_1-2" data-name="Layer 1"><path class="cls-1" d="M30,178.74h0a30,30,0,1,1,30-30,30,30,0,0,1-30,30"/><path class="cls-1" d="M110,178.74h0a30,30,0,1,1,30-30,30,30,0,0,1-30,30"/><path class="cls-1" d="M190,178.74h0a30,30,0,1,1,30-30,30,30,0,0,1-30,30"/><path class="cls-1" d="M270,178.74h0a30,30,0,1,1,30-30,30,30,0,0,1-30,30"/><path class="cls-1" d="M350,178.74h0a30,30,0,1,1,30-30,30,30,0,0,1-30,30"/><path class="cls-1" d="M30,258.74h0a30,30,0,1,1,30-30,30,30,0,0,1-30,30"/><path class="cls-1" d="M110,258.74h0a30,30,0,1,1,30-30,30,30,0,0,1-30,30"/><path class="cls-1" d="M430,258.74h0a30,30,0,1,1,30-30,30,30,0,0,1-30,30"/><path class="cls-1" d="M510,258.74h0a30,30,0,1,1,30-30,30,30,0,0,1-30,30"/><path class="cls-2" d="M270,338.74h0a30,30,0,1,1,30-30,30,30,0,0,1-30,30"/><path class="cls-1" d="M430,338.74h0a30,30,0,1,1,30-30,30,30,0,0,1-30,30"/><path class="cls-1" d="M510,338.74h0a30,30,0,1,1,30-30,30,30,0,0,1-30,30"/><path class="cls-1" d="M30,418.74h0a30,30,0,1,1,30-30,30,30,0,0,1-30,30"/><path class="cls-1" d="M110,498.74h0a30,30,0,0,1-30-30v-80a30,30,0,0,1,60,0v80a30,30,0,0,1-30,30"/><path class="cls-1" d="M30,498.74h0a30,30,0,1,1,30-30,30,30,0,0,1-30,30"/><path class="cls-1" d="M430,498.74h0a30,30,0,1,1,30-30,30,30,0,0,1-30,30"/><path class="cls-1" d="M510,498.74h0a30,30,0,1,1,30-30,30,30,0,0,1-30,30"/><path class="cls-1" d="M30,578.74h0a30,30,0,1,1,30-30,30,30,0,0,1-30,30"/><path class="cls-1" d="M110,578.74h0a30,30,0,1,1,30-30,30,30,0,0,1-30,30"/><path class="cls-1" d="M190,578.74h0a30,30,0,1,1,30-30,30,30,0,0,1-30,30"/><path class="cls-1" d="M430,658.74h0a30,30,0,0,1-30-30v-80a30,30,0,0,1,60,0v80a30,30,0,0,1-30,30"/><path class="cls-1" d="M510,578.74h0a30,30,0,1,1,30-30,30,30,0,0,1-30,30"/><path class="cls-1" d="M30,658.74h0a30,30,0,1,1,30-30,30,30,0,0,1-30,30"/><path class="cls-1" d="M190,658.74H110a30,30,0,0,1,0-60h80a30,30,0,0,1,0,60"/><path class="cls-1" d="M110,338.74H30a30,30,0,0,1,0-60h80a30,30,0,0,1,0,60"/><path class="cls-1" d="M510,178.74H430a30,30,0,1,1,0-60h80a30,30,0,0,1,0,60"/><path class="cls-1" d="M510,418.74H430a30,30,0,0,1,0-60h80a30,30,0,0,1,0,60"/><path class="cls-1" d="M270,658.74h0a30,30,0,1,1,30-30,30,30,0,0,1-30,30"/><path class="cls-1" d="M350,658.74h0a30,30,0,1,1,30-30,30,30,0,0,1-30,30"/><path class="cls-1" d="M350,578.74h0a30,30,0,1,1,30-30,30,30,0,0,1-30,30"/><path class="cls-1" d="M510,658.74h0a30,30,0,1,1,30-30,30,30,0,0,1-30,30"/><path class="cls-2" d="M288.8,578.53H251.2L166.27,344.62a109.76,109.76,0,1,1,207.46,0l-.1.29ZM204,331.41l66,181.7,66-181.7a69.76,69.76,0,1,0-132,0"/><polygon class="cls-2" points="79.92 23.5 52.52 23.5 52.52 78.74 27.4 78.74 27.4 23.5 0 23.5 0 2.54 79.92 2.54 79.92 23.5"/><polygon class="cls-2" points="88.91 2.54 157.59 2.54 157.59 22.68 114.04 22.68 114.04 32.38 155.95 32.38 155.95 48.9 114.04 48.9 114.04 58.6 157.59 58.6 157.59 78.74 88.91 78.74 88.91 2.54"/><path class="cls-2" d="M164.21,53.25H186.8c.27,5.17,4.62,8.34,15.51,8.44,9.62.09,14.06-2.64,14.06-6.17,0-2.45-1.36-5-8.8-6.08l-9.8-1.54C183.35,45.54,166,43.82,166,24.31,166,9.25,178.27,0,202.49,0c21.86,0,37.1,6.08,36.65,27.85H216.73c-.9-5.08-5.17-8.26-14.78-8.26-8.35,0-11.8,2.54-11.8,6,0,2.18,1.36,4.81,7.17,5.72l8.07,1.36c15.15,2.54,35.93,3,35.93,23.86,0,16.6-12.88,24.85-39,24.76-26.31-.09-38.74-8.26-38.1-28"/><polygon class="cls-2" points="326.1 23.5 298.7 23.5 298.7 78.74 273.58 78.74 273.58 23.5 246.18 23.5 246.18 2.54 326.1 2.54 326.1 23.5"/><rect class="cls-2" x="333.84" y="2.54" width="25.13" height="76.2"/><path class="cls-2" d="M448.14,78.74H434.72l-.37-10.07c-5.26,7.26-14.78,12.61-28.21,12.61-23.4,0-41.37-16.24-41.37-40.64S381.83,0,408.32,0c18.05,0,36.47,8.71,39.46,29.21H422.83c-1.54-3.81-6.53-7.53-14-7.53-11.25,0-19.14,7.44-19.14,19s8.08,19,18.42,19c3.72,0,13.24-1,15.78-9.89H407.14V36.65h41Z"/><path class="cls-2" d="M453.64,40.64c0-24.4,17-40.64,43.18-40.64S540,16.24,540,40.64s-17,40.64-43.18,40.64S453.64,65,453.64,40.64m61.41,0c0-12.06-8.25-19-18.23-19s-18.23,6.9-18.23,19,8.25,19,18.23,19,18.23-6.9,18.23-19"/><polygon class="cls-2" points="0 698.74 68.67 698.74 68.67 718.88 25.13 718.88 25.13 728.59 67.04 728.59 67.04 745.1 25.13 745.1 25.13 754.8 68.67 754.8 68.67 774.94 0 774.94 0 698.74"/><polygon class="cls-2" points="80 698.74 108.85 698.74 134.16 739.93 136.43 739.93 136.43 698.74 160.92 698.74 160.92 774.94 132.71 774.94 106.76 733.76 104.49 733.76 104.49 774.94 80 774.94 80 698.74"/><polygon class="cls-2" points="174.23 698.74 199.36 698.74 199.36 753.99 240 753.99 240 774.94 174.23 774.94 174.23 698.74"/><rect class="cls-2" x="248.03" y="698.74" width="25.13" height="76.2"/><polygon class="cls-2" points="283.73 698.74 312.58 698.74 337.88 739.93 340.15 739.93 340.15 698.74 364.65 698.74 364.65 774.94 336.44 774.94 310.49 733.76 308.22 733.76 308.22 774.94 283.73 774.94 283.73 698.74"/><polygon class="cls-2" points="375.21 698.74 443.88 698.74 443.88 718.88 400.34 718.88 400.34 728.59 442.25 728.59 442.25 745.1 400.34 745.1 400.34 754.8 443.88 754.8 443.88 774.94 375.21 774.94 375.21 698.74"/><path class="cls-2" d="M510.7,764.87H478l-3.35,10.07H448.74l28-76.2H512l28,76.2H514.06Zm-6.17-18.59-8-23.95h-4.36l-8,23.95Z"/></g></g></svg>